<svg version="1.1" id="Layer_1" xmlns="http://www.w3.org/2000/svg" xmlns:xlink="http://www.w3.org/1999/xlink" x="0px" y="0px"
	 width="100%" viewBox="0 0 1024 1024" enable-background="new 0 0 1024 1024" xml:space="preserve">
<path fill="#000000" opacity="1.000000" stroke="none" 
	d="
M180.304535,461.296295 
	C188.497238,462.914734 195.792542,465.753906 202.553558,469.779388 
	C205.305161,471.417694 207.087921,471.220551 209.578247,469.251801 
	C223.559311,458.199066 239.266327,451.527374 257.364380,451.711700 
	C274.622833,451.887421 290.078949,457.419037 303.288391,468.545044 
	C306.547211,471.289948 308.833038,471.352905 312.434998,469.322113 
	C338.398193,454.684052 367.484039,458.127350 386.419983,477.904938 
	C396.305389,488.229736 400.718475,501.041870 402.224426,514.881470 
	C404.302216,533.976135 402.822052,553.163940 403.098419,572.308533 
	C403.158325,576.457458 401.353699,578.484802 397.076111,578.323059 
	C393.414948,578.184631 389.744324,578.310791 386.078125,578.287415 
	C379.926392,578.248230 378.903168,577.317505 378.831970,570.960205 
	C378.710632,560.128845 378.851349,549.294067 378.673737,538.464111 
	C378.545715,530.659363 379.039276,522.859192 377.721680,515.051392 
	C375.233124,500.304596 365.542572,488.466461 352.530121,485.880920 
	C342.498627,483.887695 333.026550,486.210419 324.147858,491.183868 
	C322.131378,492.313385 321.765442,493.608887 322.726471,495.662720 
	C327.809631,506.526154 328.420654,518.070679 328.254303,529.846436 
	C327.993042,548.341125 328.178619,566.842102 328.176971,585.340454 
	C328.176392,591.733582 327.670502,592.278442 321.470673,592.318054 
	C317.471191,592.343628 313.460907,592.133850 309.474518,592.362366 
	C305.078796,592.614380 303.581940,590.662903 303.622528,586.446228 
	C303.754150,572.781982 303.676361,559.115601 303.679321,545.450073 
	C303.680878,538.283997 303.693787,531.117920 303.682251,523.951843 
	C303.649780,503.807861 292.740204,487.336243 273.649292,479.734436 
	C254.943420,472.285950 238.445526,476.830627 223.939667,490.183258 
	C213.821823,499.496674 208.824905,510.701599 209.186859,524.749451 
	C209.710373,545.067627 209.338348,565.409302 209.311981,585.740967 
	C209.304367,591.615662 208.592331,592.279236 202.617859,592.320984 
	C198.451813,592.350098 194.284409,592.257629 190.119354,592.325806 
	C186.946472,592.377747 185.634872,590.905518 185.641357,587.771912 
	C185.694046,562.274353 185.589035,536.775757 185.788712,511.279510 
	C185.830688,505.919189 188.175415,500.923248 190.316040,496.047333 
	C191.320358,493.759674 191.004654,492.394745 188.809525,491.152557 
	C177.776154,484.909210 166.230011,482.396698 154.496277,488.392242 
	C143.050537,494.240570 137.752655,504.653748 136.324753,517.091797 
	C134.342575,534.358032 135.641953,551.712646 135.193817,569.022278 
	C134.969742,577.677185 134.372849,578.298401 125.645187,578.280823 
	C121.978951,578.273438 118.312714,578.240356 114.646507,578.245361 
	C112.214134,578.248657 110.832611,577.107971 110.881973,574.637878 
	C111.304398,553.496277 108.522743,532.120239 112.005104,511.262238 
	C116.075279,486.883453 128.956985,468.265533 154.529999,461.639648 
	C162.824387,459.490570 171.407211,460.455444 180.304535,461.296295 
z"/>
<path fill="#000000" opacity="1.000000" stroke="none" 
	d="
M524.717407,545.245239 
	C524.605164,555.758728 520.441162,564.678345 515.843994,573.352417 
	C514.092163,576.657837 514.153992,578.755554 516.705078,581.555115 
	C521.635254,586.965515 526.147034,592.758484 530.796997,598.421753 
	C531.717773,599.543274 533.030396,600.488708 532.969666,602.471985 
	C529.974609,604.388550 526.581238,602.940430 523.417847,603.361877 
	C522.599304,603.470825 521.737000,603.267395 520.922913,603.391602 
	C512.800842,604.630920 506.255096,602.606201 502.493042,594.651855 
	C502.287628,594.217468 501.885712,593.855103 501.514893,593.527527 
	C501.276917,593.317383 500.928101,593.232666 500.106384,592.845459 
	C493.649170,598.014587 486.351715,602.239380 477.586670,602.876526 
	C460.893738,604.089966 443.254120,599.524475 436.778717,582.065186 
	C431.500977,567.835205 434.801392,552.136292 450.275116,544.782776 
	C451.759369,544.077454 453.349640,543.512207 454.347412,542.006348 
	C452.765533,537.755737 451.040375,533.622131 449.677460,529.372314 
	C443.090057,508.831573 459.348785,492.946899 477.254486,493.580902 
	C490.520020,494.050568 500.341156,500.253326 502.958710,511.571533 
	C505.969208,524.588684 501.982330,535.751953 491.949982,544.289246 
	C488.312561,547.384644 488.523560,549.037781 491.459503,552.046448 
	C494.917511,555.590088 497.998352,559.501770 501.673615,563.752197 
	C504.918701,559.352539 506.235809,554.770935 506.653503,550.051086 
	C507.070251,545.342041 508.853760,542.929260 513.841797,543.699707 
	C517.381104,544.246399 521.162170,542.576294 524.717407,545.245239 
M456.428040,566.286621 
	C455.885376,575.235107 458.052124,579.132812 465.275330,582.202087 
	C472.812256,585.404663 481.488190,583.829346 486.667023,578.005981 
	C482.135834,572.621765 477.549408,567.180542 472.972778,561.731140 
	C468.343231,556.218628 465.625641,556.003235 460.114075,560.722290 
	C458.569550,562.044739 457.338318,563.590637 456.428040,566.286621 
M474.200287,533.449707 
	C479.949249,533.559692 485.563232,529.372192 486.491608,524.038086 
	C487.257172,519.639404 486.402283,515.427673 482.203644,513.253113 
	C478.173431,511.165863 473.619965,511.292480 470.019012,514.329285 
	C466.307709,517.459045 466.825378,521.584351 468.531616,525.744873 
	C469.696869,528.586243 471.619049,530.817566 474.200287,533.449707 
z"/>
<path fill="#000000" opacity="1.000000" stroke="none" 
	d="
M553.520996,554.269836 
	C550.801270,535.511963 556.703003,519.845459 567.922424,505.625305 
	C583.964233,485.292938 616.390808,481.726227 638.366333,494.671143 
	C649.136230,501.015289 654.344360,511.066528 659.237732,522.226379 
	C652.182800,525.290161 644.974670,525.751221 638.204956,527.764465 
	C636.180786,528.366455 635.250244,526.610046 634.595581,525.035339 
	C625.302490,502.680756 597.164185,503.497742 583.943481,520.998718 
	C571.353394,537.664978 573.882935,561.706482 589.749634,575.060791 
	C603.581604,586.702576 623.670593,583.596497 633.438599,567.850586 
	C636.142639,563.491760 638.709106,562.199524 643.439941,563.847351 
	C647.827271,565.375488 652.383972,566.468628 656.926697,567.481812 
	C660.073975,568.183777 660.796692,569.626465 659.312683,572.413635 
	C640.441467,607.857544 599.247742,613.850159 573.801697,590.785767 
	C562.978577,580.975647 554.886353,569.789062 553.520996,554.269836 
z"/>
<path fill="#000000" opacity="1.000000" stroke="none" 
	d="
M788.729492,401.410889 
	C799.268860,421.322876 796.554382,442.746338 781.938599,456.892090 
	C768.634277,469.768524 750.045044,471.137421 734.940369,460.357910 
	C734.143555,459.789246 733.318115,459.260590 731.791382,458.231689 
	C731.121094,469.410889 731.301331,479.962677 731.584290,490.503662 
	C731.759399,497.027405 731.666199,497.316986 725.203552,497.342041 
	C721.704468,497.355591 718.190369,497.135162 714.710083,497.390015 
	C710.658386,497.686707 709.592773,495.871277 709.603149,492.104370 
	C709.696411,458.113068 709.706665,424.121307 709.596313,390.130127 
	C709.582825,385.959686 711.158813,384.400299 715.196228,384.644135 
	C718.350525,384.834656 721.541016,384.875916 724.687683,384.629486 
	C728.775024,384.309357 732.024109,384.914734 732.441528,390.640961 
	C743.502808,383.057190 754.832520,379.016144 767.628479,383.402588 
	C776.865601,386.569031 783.611633,392.780579 788.729492,401.410889 
M742.740417,403.142059 
	C729.671997,411.877686 727.027954,429.503357 737.428589,441.439728 
	C742.366699,447.106812 748.871155,449.888336 756.680298,447.806976 
	C766.899292,445.083313 771.405701,437.218872 773.297424,427.899841 
	C775.165649,418.696777 771.880127,410.784363 764.232361,405.079681 
	C757.799805,400.281433 750.919128,398.248444 742.740417,403.142059 
z"/>
<path fill="#000000" opacity="1.000000" stroke="none" 
	d="
M515.255493,372.926392 
	C527.412292,398.728119 512.841187,428.503448 481.944427,428.268616 
	C476.280670,428.225586 470.613373,428.364288 464.953522,428.208221 
	C461.502350,428.113068 460.203247,429.525116 460.248291,432.938629 
	C460.371429,442.266052 460.147308,451.599487 460.364502,460.923492 
	C460.459351,464.997131 459.137939,466.714844 454.933105,466.437958 
	C450.785950,466.164856 446.602112,466.233704 442.444427,466.401825 
	C438.933075,466.543793 437.764374,464.978546 437.794830,461.631073 
	C438.079742,430.319458 438.296417,399.007141 438.502716,367.694855 
	C438.525726,364.201752 438.303986,360.707367 438.304779,357.213593 
	C438.305298,354.940125 438.625793,352.684204 441.687012,352.735626 
	C456.825409,352.989716 471.993347,351.759949 487.100861,353.408173 
	C499.798676,354.793518 509.121918,361.294067 515.255493,372.926392 
M495.340363,383.393585 
	C493.283112,379.113678 489.986725,376.386169 485.467804,374.815491 
	C478.128235,372.264526 470.614563,373.686310 463.176056,373.482422 
	C461.106689,373.425690 460.364075,374.955933 460.362030,376.863800 
	C460.352295,385.858246 460.373688,394.852844 460.319000,403.847015 
	C460.301849,406.666168 461.728302,407.676971 464.354980,407.651855 
	C469.518005,407.602509 474.698700,407.896301 479.841888,407.570984 
	C492.888245,406.745758 499.720795,396.468536 495.340363,383.393585 
z"/>
<path fill="#000000" opacity="1.000000" stroke="none" 
	d="
M286.649841,366.317932 
	C300.093506,378.558716 304.493347,397.117218 298.301270,414.523895 
	C292.451263,430.968964 277.817444,440.914337 259.437561,442.558838 
	C235.411285,444.708588 216.924652,426.898254 213.355743,407.724487 
	C209.928009,389.309143 217.562454,371.026031 233.489090,361.284790 
	C249.288574,351.621399 269.540009,352.792908 284.039825,364.211487 
	C284.824799,364.829590 285.596008,365.465118 286.649841,366.317932 
M243.213470,380.669159 
	C239.319534,383.853149 237.190460,388.090820 235.903336,392.845398 
	C233.861450,400.387939 237.492661,410.385651 244.141693,415.462067 
	C250.669815,420.446228 260.770264,421.202118 267.644928,416.875671 
	C275.373199,412.012115 279.212555,404.386261 278.271790,395.713745 
	C276.378906,378.263702 257.278839,369.610779 243.213470,380.669159 
z"/>
<path fill="#000000" opacity="1.000000" stroke="none" 
	d="
M842.218872,449.603210 
	C830.330994,426.866455 834.630371,403.820984 853.235168,389.179108 
	C872.533508,373.991608 904.173096,380.971222 914.952576,402.997040 
	C918.832703,410.925446 919.345886,419.623535 919.118713,428.344482 
	C919.024597,431.958160 916.480896,431.463867 914.139893,431.459869 
	C897.991516,431.432251 881.843140,431.412567 865.694763,431.429352 
	C863.764771,431.431335 861.375916,430.723083 860.240295,432.857208 
	C859.249146,434.719849 860.997742,436.267212 861.811646,437.841461 
	C867.673279,449.178802 883.364502,450.438690 891.305237,444.522095 
	C895.970642,441.045990 899.969910,440.664734 904.905334,443.194855 
	C908.980652,445.284058 913.783447,445.819611 917.547791,448.703491 
	C902.242004,473.611847 858.244446,474.137573 842.218872,449.603210 
M876.502197,414.892761 
	C881.317993,414.889679 886.142944,414.700012 890.946899,414.936981 
	C895.573608,415.165222 896.374634,412.915619 895.449402,409.074005 
	C893.834290,402.368073 888.484009,400.111816 882.699585,398.684998 
	C871.934265,396.029541 859.946533,404.371674 860.231567,414.890320 
	C865.299866,414.890320 870.402100,414.890320 876.502197,414.892761 
z"/>
<path fill="#000000" opacity="1.000000" stroke="none" 
	d="
M562.007202,380.859344 
	C576.427856,381.885742 589.207764,385.721008 597.453247,397.991821 
	C603.614624,407.161194 604.822327,417.780090 604.316162,428.641083 
	C604.157471,432.045288 601.955933,431.485565 599.744446,431.477966 
	C583.746277,431.423004 567.747803,431.417969 551.749634,431.449158 
	C549.793274,431.452972 547.738770,431.183960 545.176758,432.853424 
	C546.765076,437.915833 549.619873,442.178558 554.429871,444.782440 
	C563.008423,449.426422 571.496826,448.864746 579.241150,442.901276 
	C581.892578,440.859467 584.128052,440.585449 586.978699,441.932220 
	C592.061951,444.333771 597.713623,445.414734 603.290222,448.754120 
	C597.759766,455.050842 592.209473,460.884338 584.795471,463.969208 
	C571.437927,469.527222 557.582703,469.294708 544.454468,463.582886 
	C531.030396,457.742371 524.343689,446.410187 521.986389,432.090424 
	C518.187683,409.014862 533.701782,385.668793 556.097290,381.380493 
	C557.883545,381.038452 559.731873,381.020416 562.007202,380.859344 
M561.039978,398.311127 
	C554.339172,399.653748 549.924255,403.987946 546.549744,409.567688 
	C544.332703,413.233398 545.120422,414.607300 549.486328,414.653015 
	C558.294617,414.745270 567.104309,414.720184 575.913391,414.712128 
	C581.718018,414.706818 582.585571,413.358765 580.608398,407.811951 
	C579.541199,404.817871 577.525208,402.727539 574.796387,401.273956 
	C570.763977,399.125916 566.500000,397.892487 561.039978,398.311127 
z"/>
<path fill="#000000" opacity="1.000000" stroke="none" 
	d="
M695.108887,402.091736 
	C707.170044,427.683594 698.985107,459.921021 667.072754,466.536316 
	C639.064514,472.342377 617.907227,457.778992 613.277832,432.913544 
	C607.662292,402.751587 631.184875,380.875793 654.861206,381.479736 
	C671.793518,381.911621 685.163452,387.894012 695.108887,402.091736 
M669.770508,404.698334 
	C665.242737,400.900574 660.178833,398.960480 654.150146,399.807037 
	C637.243408,402.181030 630.649963,421.823303 637.411865,435.546661 
	C643.813538,448.538757 659.776489,451.742859 670.482605,441.967346 
	C680.494019,432.826141 680.407166,415.500763 669.770508,404.698334 
z"/>
<path fill="#000000" opacity="1.000000" stroke="none" 
	d="
M728.248413,598.403870 
	C708.135132,608.906494 683.158142,604.052917 670.912415,587.819763 
	C658.938599,571.946838 659.226257,544.287415 675.489258,529.309875 
	C691.364197,514.689819 716.518372,514.316528 734.331543,527.391663 
	C755.335999,542.809082 755.800781,584.342468 728.248413,598.403870 
M718.557251,580.117615 
	C728.651794,572.185120 730.781067,557.289246 723.431091,546.021545 
	C717.867188,537.492004 707.503357,534.347107 698.120544,538.243103 
	C690.445190,541.430115 686.898193,547.663696 685.119629,555.322815 
	C682.915894,564.813110 685.586121,572.973022 692.919739,578.982300 
	C700.592529,585.269531 709.252197,585.745117 718.557251,580.117615 
z"/>
<path fill="#000000" opacity="1.000000" stroke="none" 
	d="
M361.901978,444.035583 
	C346.866913,453.287323 329.368683,449.510773 321.191345,435.531097 
	C312.676941,420.975189 316.821777,402.777740 330.629486,394.929596 
	C340.202057,389.488617 350.163696,389.507721 359.636108,394.846283 
	C369.244293,400.261292 373.656830,408.817902 373.501038,420.077423 
	C373.364716,429.926483 370.135162,437.886627 361.901978,444.035583 
z"/>
<path fill="#000000" opacity="1.000000" stroke="none" 
	d="
M188.587128,439.502991 
	C176.094406,452.367218 157.851425,452.563263 146.318756,440.227356 
	C135.104706,428.232269 136.277023,407.847076 148.787384,397.300140 
	C157.562531,389.902191 171.308990,389.100861 182.003616,395.363953 
	C191.674347,401.027344 197.013458,413.241119 194.885437,424.629547 
	C193.892899,429.941315 192.097702,434.884064 188.587128,439.502991 
z"/>
<path fill="#000000" opacity="1.000000" stroke="none" 
	d="
M826.338013,364.004242 
	C826.299255,395.835266 826.281677,427.166931 826.206116,458.498444 
	C826.187256,466.337189 826.101440,466.338287 818.447510,466.363098 
	C815.947632,466.371185 813.447693,466.383636 810.947876,466.371155 
	C804.157837,466.337280 803.812927,465.835205 804.208984,458.832886 
	C805.018738,444.515289 804.569458,430.183075 804.498169,415.856689 
	C804.395447,395.204498 804.264771,374.552307 804.075012,353.900787 
	C804.040527,350.145264 805.447327,348.391205 809.404175,348.611053 
	C813.557922,348.841858 817.737305,348.767578 821.899536,348.638306 
	C825.051819,348.540405 826.504883,349.728394 826.358215,353.006866 
	C826.201904,356.499481 826.332397,360.004974 826.338013,364.004242 
z"/>
<path fill="#000000" opacity="1.000000" stroke="none" 
	d="
M435.647766,667.997864 
	C435.648254,663.255371 435.648254,659.006226 435.648254,654.757080 
	C435.355988,654.711365 435.063721,654.665649 434.771454,654.619995 
	C432.097504,660.087708 429.410980,665.549255 426.756195,671.026245 
	C425.772644,673.055420 424.670380,674.847961 422.010498,674.731689 
	C419.523956,674.622925 418.807373,672.702820 417.930237,670.895142 
	C415.400604,665.681946 412.847412,660.480286 409.340942,655.300720 
	C409.340942,661.780884 409.374268,668.261230 409.324402,674.741028 
	C409.304626,677.308044 409.990967,680.295410 405.689880,680.313599 
	C401.607056,680.330811 401.748718,677.641968 401.744965,674.893921 
	C401.731537,665.074036 401.693512,655.254028 401.735474,645.434387 
	C401.744965,643.218933 401.043091,640.299194 404.456177,639.967590 
	C407.519104,639.670044 410.845947,639.124512 412.650238,642.922974 
	C415.215942,648.324280 417.952423,653.644958 420.654083,658.980713 
	C421.007996,659.679688 421.587341,660.264587 422.323517,661.253113 
	C426.239594,655.598267 428.832062,649.688843 431.832275,644.011719 
	C433.024994,641.754761 434.279327,639.854736 437.375610,639.749878 
	C441.451477,639.611816 443.509155,640.653625 443.379089,645.292725 
	C443.099243,655.271484 443.274231,665.263062 443.271149,675.249390 
	C443.270355,677.858093 443.310760,680.277161 439.543884,680.341614 
	C435.864319,680.404480 435.572021,678.232727 435.641266,675.481445 
	C435.699860,673.152771 435.649445,670.821411 435.647766,667.997864 
z"/>
<path fill="#000000" opacity="1.000000" stroke="none" 
	d="
M780.931152,666.986084 
	C780.916382,659.663025 780.846252,652.837158 780.919373,646.012817 
	C780.945007,643.623901 780.325012,640.621033 783.747986,639.921692 
	C786.841187,639.289673 789.627808,639.854431 791.592285,642.852539 
	C794.052368,646.607117 796.733887,650.218140 799.364197,653.859009 
	C801.885376,657.348877 804.463196,660.797791 807.416931,664.808899 
	C808.644653,659.353516 808.472595,654.500427 808.144897,649.614075 
	C808.000916,647.467224 808.143677,645.288513 808.314453,643.136780 
	C808.479858,641.052612 809.520386,639.756104 811.844482,639.826538 
	C814.151306,639.896484 815.806335,640.784180 815.876282,643.268616 
	C815.998047,647.592712 815.948364,651.921692 815.967651,656.248596 
	C815.994324,662.241272 816.086243,668.234863 816.007019,674.226135 
	C815.978638,676.374268 817.117310,679.288818 813.888916,680.102966 
	C810.814514,680.878296 808.039185,680.229797 806.020752,677.293945 
	C802.155396,671.671692 798.113098,666.171143 794.147034,660.618042 
	C792.714783,658.612549 791.457520,656.447632 788.652954,654.787842 
	C788.652954,663.242371 788.652954,671.287964 788.652954,679.146057 
	C782.289246,681.333313 780.977905,680.454651 780.928345,674.475708 
	C780.909058,672.145203 780.929688,669.814514 780.931152,666.986084 
z"/>
<path fill="#000000" opacity="1.000000" stroke="none" 
	d="
M706.956299,681.292419 
	C694.946350,680.277222 688.300842,674.103027 686.888489,663.059509 
	C685.635498,653.261719 691.028259,643.191833 699.548645,640.566284 
	C708.448669,637.823730 720.447510,639.462097 724.400513,649.379578 
	C721.112183,652.383240 718.302734,654.218628 714.105652,649.810486 
	C709.872559,645.364685 702.208923,646.672119 698.243103,651.657654 
	C693.653259,657.427673 694.784424,666.359802 700.672668,670.841797 
	C705.746948,674.704407 711.831726,673.437805 716.193787,667.411926 
	C714.526917,665.945679 712.466309,666.398621 710.613159,666.378601 
	C708.132690,666.351868 706.935974,665.351990 706.885193,662.830261 
	C706.830017,660.090271 708.131958,658.853394 710.798523,658.861267 
	C714.126709,658.871033 717.477295,659.103394 720.777710,658.799683 
	C725.395874,658.374634 726.987671,659.965576 726.446655,664.721558 
	C725.454895,673.439331 718.616699,679.629822 706.956299,681.292419 
z"/>
<path fill="#000000" opacity="1.000000" stroke="none" 
	d="
M193.384399,663.265442 
	C195.252930,668.110779 197.531281,672.029846 202.854919,672.996338 
	C207.177063,673.781067 211.036789,671.748779 213.125641,667.334106 
	C211.845703,665.757019 210.039413,666.416992 208.479950,666.402405 
	C205.664871,666.376038 204.655396,665.016418 204.714249,662.358154 
	C204.771133,659.788879 206.115433,658.815308 208.502563,658.824158 
	C212.164001,658.837708 215.835953,658.996887 219.484329,658.777161 
	C223.680923,658.524475 224.655975,660.538940 224.195602,664.261658 
	C223.043182,673.580139 214.267456,681.160828 204.315079,681.277710 
	C194.893936,681.388428 186.019211,673.797852 184.770905,664.561523 
	C183.222702,653.106262 187.095596,644.616150 196.125610,640.903503 
	C204.382889,637.508606 218.478012,639.367737 221.929779,649.427063 
	C218.863922,652.046265 216.100662,654.690857 212.102890,650.151978 
	C209.032944,646.666382 204.671509,646.384094 200.566483,648.002197 
	C196.260437,649.699463 193.677658,653.120605 193.303070,657.886841 
	C193.173584,659.534485 193.315277,661.203430 193.384399,663.265442 
z"/>
<path fill="#000000" opacity="1.000000" stroke="none" 
	d="
M499.667542,660.000000 
	C499.668365,654.519104 499.774475,649.535034 499.634735,644.557861 
	C499.540619,641.206055 500.791504,639.610901 504.273468,639.797546 
	C509.235291,640.063416 514.218811,639.502258 519.170776,640.462158 
	C527.587524,642.093689 533.299255,648.610168 534.245972,657.904419 
	C535.224670,667.511475 531.235535,674.863403 523.311340,678.193359 
	C516.632935,680.999695 509.625336,680.336304 502.677063,680.206055 
	C499.931732,680.154602 499.701752,678.048523 499.695312,675.941162 
	C499.679596,670.794006 499.676361,665.646912 499.667542,660.000000 
M523.373657,667.798035 
	C528.858521,658.320312 524.413208,648.937439 513.825439,647.616089 
	C510.198853,647.163391 508.029877,648.248108 508.165283,652.378601 
	C508.295807,656.360779 508.179199,660.351013 508.171021,664.337708 
	C508.155121,672.080627 509.776093,673.375427 517.318359,671.511414 
	C519.436646,670.987976 521.358215,670.001709 523.373657,667.798035 
z"/>
<path fill="#000000" opacity="1.000000" stroke="none" 
	d="
M142.180054,676.359802 
	C134.663055,681.247620 126.556938,680.289185 118.604973,680.263672 
	C116.506866,680.256958 115.698692,678.984192 115.697937,677.027588 
	C115.693634,665.867310 115.699768,654.706970 115.667091,643.546814 
	C115.659782,641.049072 116.835808,639.872192 119.300690,639.879944 
	C124.958549,639.897827 130.656616,639.580261 136.215744,640.844849 
	C139.696854,641.636658 142.659622,643.574463 144.868423,646.434387 
	C151.244370,654.689819 150.081802,668.868835 142.180054,676.359802 
M140.401855,657.288696 
	C138.000214,649.895325 134.244003,647.299011 127.205284,648.027710 
	C124.944969,648.261658 123.339020,648.967529 123.341980,651.581360 
	C123.348381,657.244141 123.350845,662.907104 123.316605,668.569702 
	C123.302811,670.851318 124.422951,671.725342 126.641289,671.996765 
	C136.136353,673.158569 140.839493,668.513733 140.401855,657.288696 
z"/>
<path fill="#000000" opacity="1.000000" stroke="none" 
	d="
M327.417908,670.717224 
	C328.287537,673.766052 329.921906,676.192261 329.989410,679.045471 
	C324.573730,681.427429 322.593506,680.893127 320.691071,676.045898 
	C319.340729,672.605347 317.239624,670.958374 313.509460,671.340820 
	C311.863159,671.509705 310.163513,671.526794 308.524200,671.322754 
	C304.428772,670.813049 301.833679,672.246460 300.782684,676.421082 
	C300.231293,678.611328 298.982788,680.177979 296.292511,680.344910 
	C291.529114,680.640442 290.674194,679.536804 292.494690,675.024231 
	C296.598969,664.850708 300.703308,654.676880 304.718567,644.468079 
	C305.738312,641.875427 306.627563,639.740295 310.138702,639.712341 
	C313.795410,639.683105 315.438232,641.326172 316.681793,644.514893 
	C320.063446,653.186340 323.725769,661.748291 327.417908,670.717224 
M307.687836,662.586670 
	C309.817291,662.934875 311.946686,663.282532 314.196472,662.101440 
	C314.057709,658.566833 312.603424,655.533630 310.612427,651.727234 
	C309.151428,655.711426 306.897919,658.479858 307.687836,662.586670 
z"/>
<path fill="#000000" opacity="1.000000" stroke="none" 
	d="
M667.407166,676.674194 
	C666.345947,672.387939 663.885559,670.871826 659.929138,671.339111 
	C658.122925,671.552490 656.256104,671.499512 654.439636,671.326721 
	C650.936707,670.993652 649.022888,672.369324 647.742798,675.772888 
	C645.772400,681.011658 644.360168,681.342224 638.512085,679.305908 
	C637.917786,678.114502 638.433655,676.995422 638.854248,675.941040 
	C643.231750,664.967773 647.575073,653.979797 652.091858,643.063721 
	C653.791504,638.955994 660.489319,638.097107 662.208313,641.962891 
	C667.473450,653.803711 672.613098,665.723145 676.500977,678.119141 
	C676.630920,678.533325 676.372070,679.069336 676.255737,679.787781 
	C672.834106,680.445618 669.335083,681.735779 667.407166,676.674194 
M657.531311,653.136597 
	C655.169312,655.743713 654.277588,658.854431 654.029175,662.337769 
	C656.609680,662.920410 658.815796,663.260010 661.214905,661.939575 
	C660.885620,658.789001 659.851501,655.934814 657.531311,653.136597 
z"/>
<path fill="#000000" opacity="1.000000" stroke="none" 
	d="
M581.695312,671.391235 
	C578.814209,671.481812 577.753113,673.239441 577.236877,675.205200 
	C575.913818,680.243042 572.723816,681.225952 568.238159,679.834412 
	C566.985046,678.094604 567.888611,676.582886 568.496765,675.068298 
	C572.705811,664.585510 576.967896,654.123596 581.107117,643.613281 
	C582.081665,641.138794 583.596558,639.852234 586.277771,639.778625 
	C588.786194,639.709778 590.898132,640.134705 591.961609,642.774353 
	C596.555176,654.176453 601.187561,665.562927 605.745911,676.979065 
	C606.022644,677.672119 605.781799,678.571899 605.781799,679.508667 
	C601.354919,681.099915 597.895630,680.949585 596.430359,675.649109 
	C595.558228,672.494141 593.447449,671.094604 590.092773,671.337097 
	C587.446106,671.528320 584.774658,671.376221 581.695312,671.391235 
M585.793030,662.775757 
	C587.237732,662.742981 588.770325,663.202698 590.237793,661.829956 
	C590.078979,658.861938 589.327637,656.023926 586.328613,652.965759 
	C585.426392,656.657104 581.129700,658.851074 585.793030,662.775757 
z"/>
<path fill="#000000" opacity="1.000000" stroke="none" 
	d="
M481.740723,680.293823 
	C474.936188,680.313843 468.604065,680.232300 462.275360,680.344177 
	C459.121643,680.399963 457.713135,679.153809 457.729706,675.949097 
	C457.784882,665.287292 457.767548,654.624573 457.693970,643.962830 
	C457.672882,640.909485 459.206390,639.822083 462.017334,639.838257 
	C468.347778,639.874573 474.679565,639.934509 481.008728,639.842346 
	C483.894897,639.800354 485.252747,640.802612 485.327545,643.870422 
	C485.410065,647.252258 483.795868,648.249634 480.762909,648.192688 
	C476.933044,648.120850 473.098694,648.287415 469.268860,648.215149 
	C466.094818,648.155334 465.356995,649.924622 465.343475,652.667908 
	C465.330048,655.391785 466.471558,656.674866 469.208252,656.650208 
	C472.706207,656.618591 476.205597,656.722168 479.703156,656.675476 
	C482.162689,656.642639 483.350403,657.589783 483.348083,660.205933 
	C483.345795,662.808899 482.601196,664.367126 479.700012,664.311279 
	C476.536163,664.250366 473.368683,664.377197 470.205017,664.312683 
	C467.399811,664.255432 465.336700,664.675903 465.315674,668.282715 
	C465.293823,672.039612 467.356384,672.732239 470.433105,672.664246 
	C473.929932,672.586914 477.430237,672.621216 480.928284,672.665222 
	C482.737823,672.687927 484.862915,672.457214 485.104736,675.061584 
	C485.318726,677.366272 485.728912,679.958069 481.740723,680.293823 
z"/>
<path fill="#000000" opacity="1.000000" stroke="none" 
	d="
M841.684570,650.698853 
	C839.193359,653.797607 837.909119,656.877319 838.159973,660.620789 
	C838.499939,665.691040 840.562744,669.567261 845.233887,671.750427 
	C849.744873,673.858826 853.643555,672.320984 857.163208,669.329163 
	C858.545166,668.154419 859.664734,666.668213 861.900513,667.579895 
	C866.103699,669.293884 866.692444,671.664612 863.624939,675.130554 
	C858.702942,680.691772 849.840881,682.621948 842.052246,679.829102 
	C834.969910,677.289490 830.053101,670.704346 829.676331,663.253723 
	C829.027954,650.431580 833.342468,642.857361 843.325500,640.280518 
	C851.856750,638.078430 863.124451,640.041077 866.654541,649.248230 
	C861.863708,654.049194 861.377075,654.089905 856.899048,650.063965 
	C852.708069,646.296265 847.582825,646.421326 841.684570,650.698853 
z"/>
<path fill="#000000" opacity="1.000000" stroke="none" 
	d="
M766.308228,641.351318 
	C767.266296,646.676758 765.383057,648.852234 760.201843,648.226013 
	C757.249146,647.869141 754.222595,648.160522 751.232178,648.067871 
	C748.166992,647.972961 747.245544,649.526978 747.247437,652.396973 
	C747.249207,655.231384 748.001526,656.805420 751.182068,656.674194 
	C754.666809,656.530396 758.163818,656.711670 761.654846,656.682617 
	C764.231506,656.661194 765.186951,658.010559 765.171875,660.420288 
	C765.157410,662.737366 764.415710,664.300842 761.772156,664.290405 
	C758.779541,664.278625 755.786072,664.360840 752.794312,664.314819 
	C749.763794,664.268188 747.150146,664.308167 747.234558,668.618835 
	C747.312683,672.606445 749.701721,672.704529 752.564697,672.646484 
	C755.223877,672.592468 757.885071,672.646973 760.545410,672.648865 
	C767.034607,672.653564 767.090027,672.724243 765.809753,680.210327 
	C758.024841,680.210327 750.116028,680.243530 742.207825,680.189636 
	C739.909302,680.173950 739.690491,678.403992 739.686707,676.655334 
	C739.663025,665.681702 739.649536,654.708008 739.657715,643.734375 
	C739.658813,642.222168 739.727966,640.208740 741.577515,640.182678 
	C749.770142,640.067566 758.024170,638.629639 766.308228,641.351318 
z"/>
<path fill="#000000" opacity="1.000000" stroke="none" 
	d="
M896.426025,676.291382 
	C896.876282,679.708008 895.315002,680.413452 892.652893,680.354187 
	C890.031738,680.295898 888.214111,679.419128 888.746643,676.612305 
	C890.807495,665.751648 885.531250,657.494385 879.633240,649.291321 
	C877.844666,646.803772 875.646423,644.392151 874.988586,641.210999 
	C879.764832,638.534851 882.678711,639.140076 885.411865,643.409729 
	C887.636292,646.884705 889.759888,650.424133 892.138306,654.275085 
	C895.528931,651.465210 897.083313,647.774292 898.909302,644.418579 
	C901.458496,639.733704 904.948303,638.730896 909.592773,640.358643 
	C910.704285,642.339355 909.342896,643.641968 908.517456,644.997192 
	C906.703491,647.974854 905.154053,651.230591 902.827026,653.755859 
	C896.939758,660.144897 895.488281,667.607910 896.426025,676.291382 
z"/>
<path fill="#000000" opacity="1.000000" stroke="none" 
	d="
M363.787231,680.302673 
	C357.497437,680.308411 351.682861,680.252869 345.870239,680.333923 
	C342.918945,680.375061 341.663940,679.083923 341.676575,676.149353 
	C341.722290,665.518677 341.713440,654.887573 341.651489,644.257019 
	C341.635315,641.480835 342.511627,639.837219 345.593201,639.793884 
	C348.823364,639.748535 350.061279,641.371338 350.053680,644.391846 
	C350.033600,652.364502 350.038361,660.337280 350.064178,668.309875 
	C350.067322,669.288696 350.258759,670.266907 350.470825,672.258545 
	C355.050262,672.258545 359.626495,672.160889 364.195465,672.300232 
	C366.446472,672.368835 368.397766,672.972412 368.330841,676.044189 
	C368.268494,678.906372 367.309021,680.490417 363.787231,680.302673 
z"/>
<path fill="#000000" opacity="1.000000" stroke="none" 
	d="
M257.235413,646.493835 
	C255.979980,641.609680 257.516052,639.584839 262.369995,639.791748 
	C268.858734,640.068237 275.367035,639.928772 281.866486,639.891541 
	C284.577698,639.876038 286.297882,640.561279 286.354156,643.777954 
	C286.412598,647.116272 284.870087,648.058533 281.798645,648.140137 
	C275.368896,648.310730 275.361145,648.426697 275.351562,655.116333 
	C275.339874,663.252075 275.348785,671.387817 275.348785,679.400269 
	C268.594513,681.173584 267.712402,680.586853 267.674164,674.505371 
	C267.632233,667.839050 267.426788,661.161377 267.739044,654.509583 
	C267.956116,649.885071 266.643738,647.506714 261.652344,648.079895 
	C260.176483,648.249390 258.639709,648.015930 257.235413,646.493835 
z"/>
<path fill="#000000" opacity="1.000000" stroke="none" 
	d="
M547.797852,676.712524 
	C547.758057,665.794434 547.793701,655.348206 547.713684,644.902954 
	C547.690430,641.867126 548.210510,639.717957 551.961609,639.717590 
	C555.683533,639.717285 556.283691,641.834167 556.262756,644.880188 
	C556.192139,655.159790 556.237793,665.440125 556.203796,675.720032 
	C556.197144,677.717834 556.281799,679.978210 553.481140,680.185974 
	C551.060608,680.365540 548.247681,680.927673 547.797852,676.712524 
z"/>
<path fill="#000000" opacity="1.000000" stroke="none" 
	d="
M236.812210,647.125610 
	C236.825592,645.644531 236.851700,644.645874 236.850235,643.647278 
	C236.846268,640.942261 238.218109,639.776672 240.889023,639.755005 
	C243.767349,639.731689 245.223251,640.932922 245.215118,643.900391 
	C245.185425,654.720642 245.183426,665.541077 245.214325,676.361328 
	C245.222931,679.371338 243.765823,680.376770 240.856186,680.360962 
	C237.772675,680.344299 236.783768,678.934082 236.801971,676.074463 
	C236.862305,666.586060 236.817093,657.096985 236.812210,647.125610 
z"/>
<path fill="#000000" opacity="1.000000" stroke="none" 
	d="
M170.299301,643.287903 
	C170.326111,654.374451 170.297440,664.990967 170.360229,675.607056 
	C170.376846,678.416748 170.001083,680.377930 166.404480,680.431335 
	C162.661392,680.486938 162.598068,678.437134 162.625153,675.651428 
	C162.726761,665.201843 162.679443,654.750793 162.674820,644.300293 
	C162.673889,642.189331 162.859039,640.146851 165.538895,639.901245 
	C167.753769,639.698181 170.015701,639.713806 170.299301,643.287903 
z"/>
</svg>